<?xml version="1.0" encoding="utf-8"?>
<!-- Generator: Adobe Illustrator 28.0.0, SVG Export Plug-In . SVG Version: 6.00 Build 0)  -->
<svg version="1.1" id="Layer_1" xmlns="http://www.w3.org/2000/svg" xmlns:xlink="http://www.w3.org/1999/xlink" x="0px" y="0px"
	 viewBox="0 0 1924.81 301.72" style="enable-background:new 0 0 1924.81 301.72;" xml:space="preserve">
<style type="text/css">
	.st0{fill:#1D1D1D;}
</style>
<g>
	<path class="st0" d="M0,297.46V21.7h176.56v41.64H49.41v82.73h114.75v41.09H49.41v110.3H0z"/>
	<path class="st0" d="M295.38,301.72c-20.11,0-37.57-4.47-52.38-13.42c-14.81-8.94-26.25-21.41-34.33-37.38
		c-8.08-15.98-12.12-34.58-12.12-55.8c0-21.47,4.04-40.25,12.12-56.36c8.08-16.1,19.53-28.59,34.33-37.48
		c14.81-8.88,32.26-13.33,52.38-13.33c20.23,0,37.76,4.44,52.56,13.33c14.81,8.88,26.25,21.38,34.33,37.48
		c8.08,16.1,12.12,34.89,12.12,56.36c0,21.22-4.04,39.82-12.12,55.8c-8.08,15.98-19.53,28.44-34.33,37.38
		C333.13,297.25,315.61,301.72,295.38,301.72z M295.38,262.67c11.23,0,20.57-3.02,28.04-9.07c7.46-6.04,13.02-14.19,16.66-24.43
		c3.64-10.24,5.46-21.65,5.46-34.24c0-12.71-1.82-24.18-5.46-34.42c-3.64-10.24-9.19-18.38-16.66-24.43
		c-7.47-6.04-16.81-9.07-28.04-9.07c-11.23,0-20.51,3.03-27.85,9.07c-7.34,6.05-12.83,14.16-16.47,24.34
		c-3.64,10.18-5.46,21.69-5.46,34.52c0,12.58,1.82,24,5.46,34.24c3.64,10.24,9.13,18.39,16.47,24.43
		C274.86,259.65,284.15,262.67,295.38,262.67z"/>
	<path class="st0" d="M436.4,297.46V90.55h46.64v34.61h2.22c3.7-11.97,10.18-21.19,19.43-27.67c9.25-6.48,19.8-9.72,31.65-9.72
		c2.71,0,5.74,0.12,9.07,0.37c3.33,0.25,6.17,0.55,8.51,0.92v44.23c-1.98-0.62-5.18-1.17-9.62-1.67c-4.44-0.49-8.82-0.74-13.14-0.74
		c-8.88,0-16.87,1.91-23.97,5.74c-7.1,3.83-12.65,9.1-16.66,15.82c-4.01,6.73-6.02,14.47-6.02,23.23v121.78H436.4z"/>
	<path class="st0" d="M592.79,297.46V90.55h45.16l1.85,49.78h-3.52c2.96-12.34,7.56-22.39,13.79-30.17
		c6.23-7.77,13.51-13.54,21.84-17.3c8.33-3.76,17.06-5.64,26.19-5.64c14.93,0,26.99,4.69,36.18,14.07
		c9.19,9.38,15.7,23.2,19.53,41.46h-5.74c2.84-12.34,7.68-22.61,14.53-30.81c6.85-8.2,14.99-14.37,24.43-18.51
		c9.44-4.13,19.52-6.2,30.26-6.2c12.46,0,23.63,2.72,33.5,8.14c9.87,5.43,17.7,13.36,23.5,23.78c5.8,10.43,8.7,23.35,8.7,38.77
		v139.55h-48.12V165.32c0-12.83-3.52-22.21-10.55-28.13c-7.03-5.92-15.49-8.88-25.35-8.88c-7.65,0-14.31,1.67-19.99,5
		c-5.68,3.33-10.03,7.93-13.05,13.79c-3.02,5.86-4.53,12.68-4.53,20.45v129.92h-47.01V163.1c0-10.49-3.27-18.91-9.81-25.26
		c-6.54-6.35-14.93-9.53-25.17-9.53c-7.03,0-13.48,1.6-19.34,4.81c-5.86,3.21-10.52,7.96-13.97,14.25
		c-3.46,6.29-5.18,14.07-5.18,23.32v126.78H592.79z"/>
	<path class="st0" d="M991.81,301.72c-13.08,0-24.86-2.38-35.35-7.12c-10.49-4.75-18.76-11.75-24.8-21.01
		c-6.05-9.25-9.07-20.66-9.07-34.24c0-11.72,2.19-21.41,6.57-29.06c4.38-7.65,10.3-13.76,17.77-18.32
		c7.46-4.56,15.88-8.02,25.26-10.36c9.38-2.34,19.12-4.01,29.24-5c11.97-1.36,21.71-2.53,29.24-3.52
		c7.52-0.99,13.05-2.59,16.56-4.81s5.27-5.67,5.27-10.36v-0.92c0-6.78-1.36-12.55-4.07-17.3c-2.72-4.75-6.76-8.39-12.12-10.92
		c-5.37-2.53-12-3.79-19.9-3.79c-8.02,0-14.96,1.24-20.82,3.7c-5.86,2.47-10.64,5.68-14.34,9.62c-3.7,3.95-6.42,8.21-8.14,12.77
		l-44.6-9.07c4.07-12.21,10.36-22.3,18.88-30.26c8.51-7.96,18.66-13.91,30.45-17.86c11.78-3.95,24.58-5.92,38.4-5.92
		c9.75,0,19.59,1.14,29.52,3.42c9.93,2.29,19.03,6.14,27.3,11.57c8.26,5.43,14.93,12.71,19.99,21.84
		c5.06,9.13,7.59,20.61,7.59,34.42v138.25h-46.08v-28.5h-1.85c-3.09,5.8-7.31,11.2-12.68,16.19s-12.03,9.01-19.99,12.03
		C1012.08,300.21,1002.67,301.72,991.81,301.72z M1004.21,266c9.99,0,18.6-1.97,25.82-5.92c7.22-3.95,12.83-9.16,16.84-15.64
		c4.01-6.48,6.01-13.54,6.01-21.19v-24.43c-1.6,1.24-4.29,2.41-8.05,3.52c-3.76,1.11-7.96,2.1-12.58,2.96
		c-4.63,0.87-9.19,1.61-13.7,2.22c-4.5,0.62-8.3,1.11-11.38,1.48c-7.16,0.99-13.63,2.59-19.43,4.81c-5.8,2.22-10.34,5.34-13.6,9.35
		c-3.27,4.01-4.9,9.23-4.9,15.64c0,5.92,1.51,10.89,4.53,14.9c3.02,4.01,7.15,7.06,12.4,9.16C991.41,264.95,997.42,266,1004.21,266z
		"/>
	<path class="st0" d="M1290.53,301.72c-21.35,0-39.88-3.33-55.61-9.99c-15.73-6.66-28.04-16.35-36.92-29.06
		c-8.88-12.71-13.7-28.13-14.44-46.27h48.67c0.86,9.62,3.89,17.65,9.07,24.06c5.18,6.42,12.03,11.2,20.54,14.34
		c8.51,3.15,17.95,4.72,28.32,4.72c10.86,0,20.45-1.67,28.78-5c8.33-3.33,14.83-7.99,19.53-13.97c4.69-5.98,7.03-12.92,7.03-20.82
		c0-7.15-2.07-13.08-6.2-17.77c-4.13-4.69-9.93-8.67-17.4-11.94c-7.47-3.27-16.19-6.14-26.19-8.61l-31.28-8.14
		c-23.07-5.92-41.06-14.87-53.95-26.84c-12.89-11.97-19.34-27.7-19.34-47.19c0-16.29,4.38-30.54,13.14-42.75
		c8.76-12.21,20.73-21.68,35.9-28.41c15.18-6.72,32.39-10.09,51.64-10.09c19.62,0,36.83,3.4,51.63,10.18
		c14.81,6.79,26.37,16.17,34.7,28.13c8.33,11.97,12.68,25.6,13.05,40.9h-47.93c-1.23-11.84-6.51-21.01-15.82-27.48
		c-9.32-6.48-21.44-9.72-36.37-9.72c-10.36,0-19.28,1.57-26.74,4.72c-7.47,3.15-13.2,7.43-17.21,12.86
		c-4.01,5.43-6.02,11.66-6.02,18.69c0,7.65,2.37,13.94,7.13,18.88c4.75,4.94,10.73,8.88,17.95,11.84s14.53,5.37,21.93,7.22
		l25.73,6.66c10.24,2.47,20.17,5.74,29.8,9.81s18.29,9.22,26,15.45c7.71,6.23,13.85,13.79,18.42,22.67
		c4.56,8.88,6.85,19.31,6.85,31.28c0,16.17-4.14,30.38-12.4,42.66c-8.27,12.28-20.17,21.84-35.72,28.69
		C1331.24,298.29,1312.49,301.72,1290.53,301.72z"/>
	<path class="st0" d="M1438.03,297.46V138.71h48.12v158.75H1438.03z"/>
	<path class="st0" d="M1585.35,176.24v121.22h-48.12V90.55h45.53l0.74,51.08h-3.89c5.8-17.89,14.31-31.31,25.54-40.25
		c11.23-8.94,25.29-13.42,42.2-13.42c14.19,0,26.59,3.03,37.2,9.07c10.61,6.05,18.85,14.87,24.71,26.46
		c5.86,11.6,8.79,25.73,8.79,42.38v131.59h-48.12V173.28c0-13.82-3.58-24.68-10.73-32.57c-7.16-7.89-17.03-11.84-29.61-11.84
		c-8.51,0-16.1,1.85-22.76,5.55c-6.66,3.7-11.91,9.1-15.73,16.19C1587.26,157.7,1585.35,166.24,1585.35,176.24z"/>
	<path class="st0" d="M1864.81,90.55v37.75h-117.52V90.55H1864.81z M1776.72,41.32h48.12v197.84c0,7.53,1.6,13.05,4.81,16.56
		c4.59,5.02,11.51,5.09,15.73,5.27c3.66,0.16,6.7-0.34,8.79-0.83c0.03,13.02,0.06,26.03,0.09,39.05c-3.74,0.58-9.25,1.2-15.92,1.02
		c-10.82-0.29-30.84-0.98-45.71-14.81c-10.61-9.87-15.92-23.93-15.92-42.2V41.32z"/>
</g>
<path class="st0" d="M1177.61,54.71c-8,21.67-16,43.33-24,65c-11.33,0-22.67,0-34,0c11.33-21.33,22.67-42.67,34-64
	c-11.33,0-22.67,0-34,0c0-18.67,0-37.33,0-56c19.33,0,38.67,0,58,0C1177.61,18.05,1177.61,36.38,1177.61,54.71z"/>
<path class="st0" d="M1498.61,54.71c-8,21.67-16,43.33-24,65c-11.33,0-22.67,0-34,0c11.33-21.33,22.67-42.67,34-64
	c-11.33,0-22.67,0-34,0c0-18.67,0-37.33,0-56c19.33,0,38.67,0,58,0C1498.61,18.05,1498.61,36.38,1498.61,54.71z"/>
<rect x="1878.61" y="252.71" class="st0" width="46" height="46"/>
<g>
</g>
<g>
</g>
<g>
</g>
<g>
</g>
<g>
</g>
<g>
</g>
<g>
</g>
<g>
</g>
<g>
</g>
<g>
</g>
<g>
</g>
<g>
</g>
<g>
</g>
<g>
</g>
<g>
</g>
</svg>
